<svg width="128" height="128" viewBox="0 0 33.867 33.867" xmlns="http://www.w3.org/2000/svg"><rect style="fill:#fff8f6;fill-opacity:1;stroke-width:.529167;stroke-linecap:round;stroke-linejoin:round" width="33.867" height="33.867" ry="3.969"/><g aria-label="fglt" style="font-weight:700;font-size:15.875px;font-family:'Noto Sans';-inkscape-font-specification:'Noto Sans Bold';stroke-width:.264583"><path d="M9.099 19.935H7.051v6.89H4.686v-6.89H3.384v-1.143l1.302-.635v-.635q0-1.111.365-1.714.38-.62 1.064-.873.698-.254 1.635-.254.698 0 1.254.11.571.112.92.255l-.603 1.73q-.27-.08-.587-.143-.318-.08-.73-.08-.492 0-.73.302-.223.302-.223.762v.54H9.1zM13.258 17.998q.794 0 1.429.318.635.317 1.08.952h.063l.19-1.11h2v8.683q0 1.238-.491 2.08-.477.84-1.445 1.27-.968.444-2.397.444-.92 0-1.715-.111-.777-.111-1.524-.397v-1.89q.794.334 1.636.493.857.175 1.746.175.92 0 1.365-.493.46-.492.46-1.476v-.175q0-.27.016-.555.032-.286.048-.508h-.064q-.444.682-1.063.984-.62.302-1.397.302-1.54 0-2.413-1.175-.857-1.19-.857-3.302 0-2.127.889-3.318.889-1.19 2.444-1.19zm.746 1.921q-.555 0-.936.302-.365.286-.556.873-.174.572-.174 1.445 0 1.301.412 1.952.413.635 1.286.635.46 0 .794-.11.333-.128.54-.398.222-.285.333-.73.111-.444.111-1.08v-.285q0-.937-.19-1.508-.19-.572-.588-.826-.397-.27-1.032-.27zM22.863 26.825h-2.366V14.76h2.366zM28.99 25.095q.397 0 .762-.08t.73-.19v1.762q-.38.159-.952.27-.556.127-1.222.127-.778 0-1.397-.254-.604-.254-.969-.873-.349-.635-.349-1.747v-4.175h-1.127v-1l1.302-.794.682-1.825h1.508v1.841h2.43v1.778h-2.43v4.175q0 .492.286.746.286.239.746.239z"/></g></svg>