<svg xmlns="http://www.w3.org/2000/svg" fill="none" stroke="currentColor" stroke-linecap="round" stroke-linejoin="round" stroke-width="2" class="icon icon-tabler icons-tabler-outline icon-tabler-headphones" viewBox="0 0 24 24"><path stroke="none" d="M0 0h24v24H0z"/><path fill="currentColor" stroke-width=".12898" d="M3.58 10.526c.284 0 .516-.935.516-2.09 0-1.154-.232-2.089-.516-2.089-.283 0-.516.935-.516 2.09 0 1.154.233 2.09.516 2.09zm15.15-6.3c-.271 0-.51.6-.677 1.56-.271-1.644-.703-2.722-1.193-2.722-.58 0-1.09 1.516-1.329 3.722-.232-1.606-.587-2.632-.987-2.632-.554 0-1.032 2.013-1.206 4.818-.329-1.438-.806-2.341-1.335-2.341-.529 0-1.006.903-1.335 2.341-.18-2.799-.651-4.811-1.212-4.811-.4 0-.755 1.025-.987 2.631C8.23 4.58 7.727 3.064 7.14 3.064c-.49 0-.928 1.078-1.193 2.729-.16-.961-.406-1.568-.677-1.568-.503 0-.91 2.09-.91 4.67s.407 4.669.91 4.669c.207 0 .4-.355.548-.948.239 2.18.742 3.676 1.322 3.676.452 0 .852-.896 1.123-2.315.187 2.696.651 4.611 1.193 4.611.342 0 .651-.761.883-1.993.278 2.548.916 4.334 1.664 4.334.748 0 1.387-1.786 1.664-4.334.232 1.232.542 1.993.884 1.993.541 0 1.006-1.915 1.193-4.611.27 1.419.67 2.315 1.122 2.315.58 0 1.083-1.496 1.322-3.676.155.593.342.948.548.948.503 0 .91-2.09.91-4.67-.007-2.573-.413-4.669-.916-4.669Zm1.69 6.3c.283 0 .516-.935.516-2.09 0-1.154-.233-2.089-.516-2.089-.284 0-.516.935-.516 2.09 0 1.154.232 2.09.516 2.09z"/></svg>