<svg xmlns="http://www.w3.org/2000/svg" fill="none" stroke="currentColor" stroke-linecap="round" stroke-linejoin="round" stroke-width="2" class="icon icon-tabler icons-tabler-outline icon-tabler-headphones" viewBox="0 0 24 24"><path stroke="none" d="M0 0h24v24H0z"/><path fill="currentColor" stroke-width=".212" d="M12 3.106a8.894 8.894 0 1 0 0 17.787 8.894 8.894 0 0 0 0-17.786zm4.079 12.827a.554.554 0 0 1-.763.184c-2.088-1.275-4.717-1.564-7.813-.857a.555.555 0 0 1-.663-.417.554.554 0 0 1 .417-.664c3.387-.774 6.294-.44 8.638.992.261.16.344.501.184.762zm1.088-2.422a.693.693 0 0 1-.954.23c-2.39-1.47-6.034-1.896-8.862-1.038a.694.694 0 0 1-.865-.462.694.694 0 0 1 .462-.864c3.23-.98 7.245-.506 9.99 1.181.327.201.43.628.23.954zm.094-2.521C14.394 9.287 9.665 9.13 6.928 9.96a.832.832 0 0 1-1.037-.554.832.832 0 0 1 .554-1.038c3.142-.953 8.364-.77 11.665 1.19a.83.83 0 0 1 .29 1.14.831.831 0 0 1-1.139.29z"/></svg>