<svg fill="none" stroke="currentColor" stroke-linecap="round" stroke-linejoin="round" stroke-width="2" viewBox="0 0 24 24" xmlns="http://www.w3.org/2000/svg"><path d="M0 0h24v24H0z" stroke="none"/><g fill="currentColor" stroke-width="1.002"><path d="M11.97 3.1c-4.676 0-8.505 3.605-8.87 8.186l4.77 1.972a2.503 2.503 0 0 1 1.559-.434l2.12-3.074v-.044a3.36 3.36 0 0 1 3.357-3.356 3.36 3.36 0 0 1 3.356 3.356 3.36 3.36 0 0 1-3.356 3.357c-.026 0-.051 0-.076-.002l-3.026 2.16a2.522 2.522 0 0 1-2.516 2.638c-1.22 0-2.239-.871-2.47-2.024l-3.41-1.41A8.9 8.9 0 1 0 11.97 3.1" stroke-width=".20157234"/><path d="m8.678 16.604-1.094-.452c.194.404.53.741.974.927a1.892 1.892 0 0 0 2.475-2.465 1.882 1.882 0 0 0-2.414-1.047l1.13.468a1.392 1.392 0 1 1-1.071 2.569M17.142 9.706a2.239 2.239 0 0 0-2.236-2.236 2.239 2.239 0 0 0-2.237 2.236 2.239 2.239 0 0 0 2.237 2.236 2.239 2.239 0 0 0 2.236-2.236m-3.913-.004a1.68 1.68 0 1 1 3.36 0 1.68 1.68 0 0 1-3.36 0" stroke-width=".20157234"/></g></svg>